<svg height="448pt" viewBox="-20 0 448 448" width="448pt" xmlns="http://www.w3.org/2000/svg"><path d="m304 240c-57.4375 0-104 46.5625-104 104s46.5625 104 104 104 104-46.5625 104-104c-.054688-57.414062-46.585938-103.945312-104-104zm8 112v64h-16v-64h-72v-16h72v-72h16v72h72v16zm0 0"/><path d="m280 96c0 53.019531-42.980469 96-96 96s-96-42.980469-96-96 42.980469-96 96-96 96 42.980469 96 96zm0 0"/><path d="m368 448v-2.640625c-1.441406.878906-2.878906 1.761719-4.398438 2.640625zm0 0"/><path d="m184 344c-.066406-43.734375 23.699219-84.03125 62.003906-105.132812 38.304688-21.101563 85.066406-19.65625 121.996094 3.773437v-26.640625c-.035156-30.914062-25.085938-55.964844-56-56h-36.238281c-20.875 30.070312-55.15625 48.003906-91.761719 48.003906s-70.886719-17.933594-91.761719-48.003906h-36.238281c-30.914062.035156-55.9648438 25.085938-56 56v232h244.398438c-37.304688-21.347656-60.34375-61.019531-60.398438-104zm0 0"/></svg>