<svg height="469pt" viewBox="0 0 469 469.656" width="469pt" xmlns="http://www.w3.org/2000/svg"><path d="m469.046875 165.65625h-47.472656c-4.03125 76.367188-67.125 136.21875-143.597657 136.21875-76.472656 0-139.570312-59.851562-143.601562-136.21875h-48.390625v200h360.800781zm0 0"/><path d="m277.984375 285.65625c70.691406 0 128-57.308594 128-128s-57.308594-128-128-128-128 57.308594-128 128c.082031 70.65625 57.34375 127.914062 128 128zm-104-136h96v-96h16v96h96v16h-96v96h-16v-96h-96zm0 0"/><path d="m117.984375 445.65625c0 13.253906-10.746094 24-24 24s-24-10.746094-24-24 10.746094-24 24-24 24 10.746094 24 24zm0 0"/><path d="m421.984375 445.65625c0 13.253906-10.746094 24-24 24s-24-10.746094-24-24 10.746094-24 24-24 24 10.746094 24 24zm0 0"/><path d="m61.984375 53.65625c0-2.121094-.84375-4.15625-2.34375-5.65625l-48-48-11.3125 11.3125 45.65625 45.65625v340.6875c0 4.417969 3.582031 8 8 8h408v-16h-400zm0 0"/></svg>